# xmcd
#
# Track frame offsets:
#	150
#	16767
#	29652
#	41352
#	56112
#	70717
#	82430
#	101170
#
# Disc length: 1530 seconds
#
# Revision: 1
# Processed by: cddbd v1.4PL0 Copyright (c) Steve Scherf et al.
# Submitted via: audiograbber 1.81.03
#
DISCID=6a05f808
DTITLE=Various Artist - Liberty - Die Musikalische Freiheit
DYEAR=1993
DGENRE=Country
TTITLE0=Roy Rogers - Don´t give it up
TTITLE1=The Cactus Brothers - Sixteen Jons
TTITLE2=Palomino Road - Why Baby Why
TTITLE3=Pearl River - Find out what´s Happening
TTITLE4=Roy Rogers - Rockin at the Hey Hey
TTITLE5=The Cactus Brothers - The Price of Love
TTITLE6=Palomino Road - Dead End Saloon
TTITLE7=Pearl River - Good Thing Going
EXTD=
EXTT0=
EXTT1=
EXTT2=
EXTT3=
EXTT4=
EXTT5=
EXTT6=
EXTT7=
PLAYORDER=
